<svg width="149" height="69" viewBox="0 0 149 69" fill="none" xmlns="http://www.w3.org/2000/svg">
<path d="M81.3849 19.2499H87.214V19.5399H86.953C86.4696 19.5399 85.996 19.6946 85.532 20.0039C85.068 20.2939 84.7006 20.7386 84.4299 21.3379L77.4409 36.969C76.7256 38.535 76.3679 39.5307 76.3679 39.9561H76.1069L67.9579 21.3669C67.6872 20.7483 67.3102 20.2939 66.8269 20.0039C66.3628 19.6946 65.8892 19.5399 65.4058 19.5399H65.1738V19.2499H71.6989V19.5399H71.4379C71.0319 19.5399 70.7225 19.6753 70.5099 19.9459C70.3165 20.1973 70.2199 20.4389 70.2199 20.6709C70.2199 20.8836 70.2682 21.1059 70.3649 21.3379L76.4259 36.534L82.7479 21.3379C82.8253 21.1059 82.8639 20.8836 82.8639 20.6709C82.8639 20.4389 82.7576 20.1973 82.5449 19.9459C82.3516 19.6753 82.0519 19.5399 81.6459 19.5399H81.3849V19.2499Z" fill="black"/>
<line x1="60.1182" y1="43.2085" x2="90.085" y2="43.2085" stroke="black" stroke-width="2.41668"/>
</svg>
