<svg width="37" height="37" viewBox="0 0 37 37" fill="none" xmlns="http://www.w3.org/2000/svg">
<g id="Icon/Outline/phone">
<path id="Mask" fill-rule="evenodd" clip-rule="evenodd" d="M10.1752 6.16667C7.96444 6.16667 6.16685 7.96425 6.16685 10.175C6.16685 21.5648 15.4338 30.8333 26.8252 30.8333C29.0344 30.8333 30.8335 29.0357 30.8335 26.825C30.8335 26.6539 30.8227 26.4858 30.8011 26.3193L23.6786 24.6852C23.5368 24.9565 23.3811 25.251 23.2393 25.5254C22.5363 26.8666 22.0275 27.841 20.7294 27.3183C15.6327 25.53 11.4717 21.3675 9.66027 16.2091C9.1099 14.9989 10.1582 14.45 11.4871 13.7563C11.7569 13.6145 12.0483 13.4618 12.315 13.3231L10.6809 6.19904C10.5097 6.17746 10.3432 6.16667 10.1752 6.16667ZM26.8252 33.9167C13.7333 33.9167 3.0835 23.2669 3.0835 10.175C3.0835 6.26383 6.26395 3.08337 10.1752 3.08337C10.576 3.08337 10.9722 3.11729 11.3561 3.18358C11.7307 3.24371 12.1069 3.33929 12.4738 3.46571C12.9748 3.63992 13.3525 4.06079 13.4712 4.57879L15.5818 13.7733C15.699 14.279 15.5525 14.8093 15.1917 15.1855C14.9821 15.4044 14.9775 15.409 13.0658 16.4095C14.6136 19.7611 17.3038 22.4421 20.5876 23.9375C21.5897 22.0243 21.5958 22.0181 21.8147 21.8085C22.1909 21.4477 22.7243 21.3074 23.2269 21.4184L32.423 23.529C32.9394 23.6477 33.3603 24.0238 33.533 24.5249C33.6594 24.8887 33.755 25.2649 33.8182 25.6518C33.8829 26.0326 33.9168 26.4273 33.9168 26.825C33.9168 30.7362 30.7348 33.9167 26.8252 33.9167Z" fill="#231F20"/>
<mask id="mask0_108_128" style="mask-type:alpha" maskUnits="userSpaceOnUse" x="3" y="3" width="31" height="31">
<path id="Mask_2" fill-rule="evenodd" clip-rule="evenodd" d="M10.1752 6.16667C7.96444 6.16667 6.16685 7.96425 6.16685 10.175C6.16685 21.5648 15.4338 30.8333 26.8252 30.8333C29.0344 30.8333 30.8335 29.0357 30.8335 26.825C30.8335 26.6539 30.8227 26.4858 30.8011 26.3193L23.6786 24.6852C23.5368 24.9565 23.3811 25.251 23.2393 25.5254C22.5363 26.8666 22.0275 27.841 20.7294 27.3183C15.6327 25.53 11.4717 21.3675 9.66027 16.2091C9.1099 14.9989 10.1582 14.45 11.4871 13.7563C11.7569 13.6145 12.0483 13.4618 12.315 13.3231L10.6809 6.19904C10.5097 6.17746 10.3432 6.16667 10.1752 6.16667ZM26.8252 33.9167C13.7333 33.9167 3.0835 23.2669 3.0835 10.175C3.0835 6.26383 6.26395 3.08337 10.1752 3.08337C10.576 3.08337 10.9722 3.11729 11.3561 3.18358C11.7307 3.24371 12.1069 3.33929 12.4738 3.46571C12.9748 3.63992 13.3525 4.06079 13.4712 4.57879L15.5818 13.7733C15.699 14.279 15.5525 14.8093 15.1917 15.1855C14.9821 15.4044 14.9775 15.409 13.0658 16.4095C14.6136 19.7611 17.3038 22.4421 20.5876 23.9375C21.5897 22.0243 21.5958 22.0181 21.8147 21.8085C22.1909 21.4477 22.7243 21.3074 23.2269 21.4184L32.423 23.529C32.9394 23.6477 33.3603 24.0238 33.533 24.5249C33.6594 24.8887 33.755 25.2649 33.8182 25.6518C33.8829 26.0326 33.9168 26.4273 33.9168 26.825C33.9168 30.7362 30.7348 33.9167 26.8252 33.9167Z" fill="white"/>
</mask>
<g mask="url(#mask0_108_128)">
<g id="&#240;&#159;&#142;&#168; Color">
<rect id="Base" width="37" height="37" fill="#0D1C2E"/>
</g>
</g>
</g>
</svg>
